# Created by Open3D 
# object name: STN-right
# number of vertices: 195
# number of triangles: 386
v 7125.93 5033.72 3670.88
vn -0.270945 -0.673974 -0.687276
v 7195.75 5029.88 3670.2
vn 0.0622369 -0.738513 -0.671361
v 7142.43 5028.19 3683.02
vn -0.132598 -0.988601 -0.0713178
v 7158.7 5043.57 3666.22
vn -0.0556933 -0.0438167 -0.997486
v 7270.66 5057.13 3674.27
vn 0.143916 -0.122193 -0.982017
v 7275.65 5035.06 3685.66
vn 0.217972 -0.831638 -0.510751
v 7361.44 5068.88 3684.98
vn 0.28915 -0.370087 -0.882852
v 7363.67 5055.35 3704.18
vn 0.285497 -0.818834 -0.497999
v 7082.08 5058.56 3681.96
vn -0.353342 -0.176005 -0.918788
v 7177.1 5099.67 3681.98
vn -0.0192085 0.328479 -0.944316
v 7378.48 5082.28 3692.6
vn 0.251133 0.167926 -0.953275
v 7067.26 5102.42 3692.41
vn -0.240608 0.239445 -0.940624
v 7346.97 5118.39 3701.48
vn 0.130598 0.368676 -0.920338
v 7221.38 5027.76 3694.64
vn 0.053122 -0.997807 0.0394797
v 7080.02 5047.41 3697.36
vn -0.383543 -0.919346 -0.0877334
v 7041.74 5064.23 3700.98
vn -0.595314 -0.60955 -0.523498
v 7444.89 5081.28 3721.24
vn 0.468069 -0.349952 -0.811446
v 7028.98 5084.37 3706.91
vn -0.655951 -0.169707 -0.735478
v 7009.64 5135.52 3721.2
vn -0.475248 0.222276 -0.851313
v 7472.23 5127.8 3734.89
vn 0.404975 0.213283 -0.889104
v 7114.54 5172.35 3719.09
vn -0.0919289 0.465006 -0.880522
v 7302.23 5206.48 3739.49
vn 0.0806179 0.48668 -0.869852
v 7154.41 5034.72 3714.24
vn -0.108469 -0.933626 0.341434
v 7307.87 5038.44 3709.09
vn 0.182152 -0.983269 -0.001752
v 7021.06 5077.38 3728.68
vn -0.678527 -0.733222 0.0445596
v 7454.88 5070.36 3737.56
vn 0.354893 -0.87608 -0.326397
v 6993.48 5120.05 3739.13
vn -0.903734 -0.315539 -0.28931
v 6982.26 5152.19 3746.05
vn -0.871079 0.0263923 -0.490433
v 7427.99 5179.25 3744.45
vn 0.198836 0.450757 -0.87022
v 6983.81 5190.76 3761.73
vn -0.644821 0.400706 -0.650876
v 7027.05 5197.48 3747.74
vn -0.246123 0.495466 -0.833029
v 7190.1 5261.86 3767.23
vn -0.0281767 0.581735 -0.81289
v 7310.06 5054.39 3763.19
vn 0.0424184 -0.924542 0.378713
v 7078.81 5068.36 3757.94
vn -0.208847 -0.863007 0.460003
v 7405.78 5060.8 3744.05
vn 0.184259 -0.978904 0.0882953
v 7512.83 5091.63 3762.43
vn 0.675418 -0.666584 -0.315398
v 7514.3 5112.79 3760.26
vn 0.734696 -0.139489 -0.663901
v 7516.54 5205.84 3783.89
vn 0.422188 0.435134 -0.795245
v 7086.55 5264.92 3780.17
vn -0.137225 0.607052 -0.782724
v 7186.89 5065 3774.99
vn -0.0872985 -0.849487 0.520337
v 7019.85 5111.47 3801.03
vn -0.460188 -0.756292 0.465027
v 7482.89 5078.31 3764.15
vn 0.3068 -0.944816 0.114879
v 6985.63 5158.26 3818.69
vn -0.809432 -0.533712 0.24489
v 6974.32 5193.57 3794.63
vn -0.98267 -0.0291766 -0.183052
v 7543.76 5162.66 3792.25
vn 0.792722 6.78854e-05 -0.609583
v 7017.91 5254.74 3790.3
vn -0.345376 0.58716 -0.732092
v 7307.35 5317.38 3810.95
vn 0.0784736 0.639115 -0.765097
v 7421.4 5260.18 3794.43
vn 0.210864 0.575877 -0.789875
v 7448.71 5082.15 3798.27
vn 0.152526 -0.919491 0.362314
v 7511.48 5099.6 3803.81
vn 0.447861 -0.840646 0.304523
v 7547.62 5141.78 3824.83
vn 0.821491 -0.570221 0.000981995
v 7573.88 5240.12 3850.11
vn 0.764461 0.304052 -0.568465
v 6981.78 5274.63 3833.31
vn -0.683332 0.466723 -0.561451
v 7525.06 5321.21 3882.98
vn 0.441512 0.584202 -0.681011
v 7033.08 5342.07 3863.09
vn -0.293458 0.67786 -0.674083
v 7163.06 5372.23 3871.15
vn -0.0773949 0.706235 -0.703735
v 7276.58 5105.18 3853.79
vn -0.0807955 -0.818577 0.568686
v 7042.43 5151.12 3863.91
vn -0.190873 -0.755669 0.626523
v 7577.48 5197.3 3855.61
vn 0.950381 -0.204022 -0.234842
v 6958.64 5234.8 3881.39
vn -0.956798 -0.279003 0.0818264
v 7138.06 5140.56 3866.93
vn -0.138039 -0.765288 0.628713
v 7213.57 5151.37 3898.83
vn -0.155427 -0.74884 0.644268
v 7406.63 5114.25 3870.1
vn 0.057706 -0.854435 0.516344
v 7482.21 5123.08 3868.27
vn 0.19525 -0.84936 0.490372
v 7576.19 5185.17 3882.66
vn 0.840769 -0.522486 0.141828
v 6958.82 5264.24 3869.4
vn -0.948088 0.122587 -0.293432
v 6957.25 5339.71 3920.76
vn -0.831785 0.375205 -0.409091
v 6984.52 5347.16 3899.6
vn -0.52173 0.599938 -0.606524
v 7441.54 5401.89 3919.4
vn 0.222441 0.656145 -0.721106
v 7324.03 5461 3958.71
vn 0.0409015 0.698791 -0.714155
v 7299.69 5189.03 3961.75
vn -0.143919 -0.731412 0.666576
v 7001.6 5202.4 3904.21
vn -0.432985 -0.67887 0.593009
v 7524.23 5160.2 3906.91
vn 0.406123 -0.78505 0.467719
v 6972.53 5234.8 3914.34
vn -0.68386 -0.562595 0.464567
v 7596.31 5258.84 3908.51
vn 0.968766 0.0347468 -0.24553
v 7527.27 5428.65 3978.1
vn 0.426982 0.608312 -0.669061
v 7378.48 5175.72 3959.83
vn 0.109703 -0.759919 0.640694
v 7566.3 5208.98 3942.62
vn 0.602851 -0.675239 0.424999
v 6950.34 5295.25 3920.73
vn -0.996591 -0.0199411 -0.0800593
v 7590.89 5317.59 3941.56
vn 0.785251 0.400407 -0.472288
v 7466.53 5190.17 3970.08
vn 0.110586 -0.77438 0.622982
v 7593.86 5250.39 3938.2
vn 0.93775 -0.320524 0.133747
v 6981.7 5408.07 3965.53
vn -0.524429 0.658344 -0.53996
v 7075.28 5466.32 3991.7
vn -0.237229 0.734458 -0.635841
v 7441.95 5565.05 4073.14
vn 0.184116 0.683676 -0.706179
v 7210.11 5518.8 4020.22
vn -0.0891723 0.720234 -0.687977
v 7071.67 5290.74 4013.6
vn -0.196864 -0.679183 0.707075
v 7183.56 5234.53 3979.51
vn -0.169377 -0.715802 0.677451
v 6952.63 5314.77 3967.39
vn -0.881025 -0.340086 0.328842
v 7604.35 5304.25 3963.71
vn 0.990494 0.0386361 -0.132017
v 6947.37 5352.52 3966.65
vn -0.995064 0.0683794 -0.0719192
v 7525 5522.23 4065.32
vn 0.392111 0.633403 -0.667121
v 7372.24 5580 4074.69
vn 0.0739477 0.701577 -0.708746
v 7318.97 5606.89 4100.9
vn -0.0159337 0.719298 -0.694519
v 7367.12 5208.08 3998.76
vn 0.168901 -0.689473 0.704343
v 7525.23 5222.02 3993.17
vn 0.286096 -0.740838 0.607708
v 6953.13 5402.3 4004.6
vn -0.910613 0.358737 -0.20516
v 7579.51 5450.18 4045.15
vn 0.674663 0.49224 -0.550026
v 6983.55 5309.32 3995.67
vn -0.48557 -0.597186 0.638428
v 7591.29 5306.34 4034.57
vn 0.784043 -0.480598 0.392813
v 7604.42 5380.07 4022.89
vn 0.927247 0.243031 -0.284868
v 7132.53 5586.26 4108.09
vn -0.288381 0.762463 -0.579212
v 7606.84 5378.64 4059.15
vn 0.980576 -0.153683 0.121868
v 6949.43 5387.2 4022.57
vn -0.98537 -0.0152302 0.169749
v 7365.53 5257.23 4041.92
vn 0.0395438 -0.678841 0.73322
v 7256.25 5279.93 4045.06
vn -0.147691 -0.702124 0.69657
v 7554.74 5282.5 4046.17
vn 0.397281 -0.688503 0.606739
v 6966.85 5454.27 4049.46
vn -0.776665 0.586167 -0.230652
v 7007.48 5480.99 4046.57
vn -0.467711 0.756464 -0.457174
v 7058.74 5518.74 4062.24
vn -0.374272 0.754348 -0.539333
v 7195.95 5317.35 4068.85
vn -0.167765 -0.679585 0.714157
v 6963.34 5404.35 4063.46
vn -0.78914 -0.311048 0.529629
v 6963.44 5439.81 4064.49
vn -0.958644 0.227472 0.171052
v 7608.1 5457.71 4100.73
vn 0.977468 0.132878 -0.164011
v 7605.88 5552.71 4171.83
vn 0.889096 0.322379 -0.324931
v 7575.63 5348.6 4103.67
vn 0.528749 -0.5913 0.608924
v 7003.85 5398.99 4090.45
vn -0.384633 -0.574297 0.722662
v 7000.04 5502.58 4112.5
vn -0.792089 0.609086 0.0401073
v 7054.94 5541.03 4103.11
vn -0.529458 0.762275 -0.372306
v 7094.13 5591.98 4146
vn -0.563855 0.768395 -0.302714
v 7483.79 5296.29 4080.4
vn 0.0780338 -0.695855 0.713931
v 7284.68 5334.65 4104.25
vn -0.117648 -0.652502 0.748599
v 7592.4 5414.7 4139.92
vn 0.765729 -0.415013 0.491349
v 7606.14 5465.49 4145.87
vn 0.952005 -0.196205 0.234924
v 7272.5 5668.43 4170.38
vn -0.0874109 0.76625 -0.636569
v 7540.68 5340.67 4113.2
vn 0.245305 -0.671772 0.698962
v 7557.02 5396.04 4155.76
vn 0.402456 -0.587356 0.70217
v 7074.55 5451.58 4154.99
vn -0.242617 -0.518969 0.819639
v 6981.62 5464.55 4109.89
vn -0.901013 0.139735 0.41067
v 7065.24 5569.68 4160.65
vn -0.726409 0.685328 0.0515263
v 7573.63 5604.1 4179.67
vn 0.590849 0.571851 -0.569108
v 7144.63 5639.35 4179.7
vn -0.490868 0.813951 -0.310697
v 7404.95 5687.01 4190.3
vn 0.052073 0.746951 -0.662837
v 7513.4 5422.1 4192.39
vn 0.122525 -0.640021 0.758525
v 7199.11 5386.65 4129.09
vn -0.154608 -0.611848 0.775718
v 6993.52 5461.41 4126.95
vn -0.618441 -0.260289 0.741472
v 7008.93 5500.42 4143.54
vn -0.766563 0.174689 0.617952
v 7608.48 5537.74 4195.41
vn 0.98281 -0.112384 0.146476
v 7201.75 5667.23 4187.02
vn -0.272789 0.817122 -0.507837
v 7507.86 5675.29 4205.79
vn 0.339667 0.668594 -0.661519
v 7363.52 5415.77 4174.56
vn -0.0863595 -0.614388 0.784263
v 7021.14 5456.98 4138.65
vn -0.365824 -0.429862 0.825464
v 7050.71 5547.05 4173.36
vn -0.737155 0.308685 0.601095
v 7116.42 5618.62 4193.85
vn -0.716307 0.686509 0.124939
v 7048.61 5506.18 4168.61
vn -0.459231 -0.202637 0.864896
v 7607.69 5607.35 4246.22
vn 0.991513 0.118511 0.053453
v 7105.92 5596.98 4209.71
vn -0.676084 0.332787 0.657391
v 7590.97 5662.88 4269.61
vn 0.859672 0.455151 -0.231953
v 7160.25 5659.38 4221.49
vn -0.653169 0.739749 0.161687
v 7217.17 5696.8 4236.03
vn -0.480119 0.873323 -0.0824185
v 7265.52 5711.59 4229.61
vn -0.215471 0.865364 -0.452457
v 7215.62 5508.8 4219.69
vn -0.186038 -0.473821 0.860746
v 7558.87 5479.42 4223.39
vn 0.447859 -0.545785 0.708195
v 7117.36 5534.55 4207.67
vn -0.311028 -0.307011 0.899448
v 7591.18 5528.33 4227.6
vn 0.750133 -0.395059 0.53031
v 7601.66 5602.5 4266.82
vn 0.893736 -0.207926 0.397497
v 7557.98 5701.96 4268.07
vn 0.612022 0.625975 -0.483306
v 7480.22 5520.08 4271.86
vn -0.0123494 -0.558494 0.829417
v 7528.29 5501.14 4252.07
vn 0.201966 -0.584446 0.785896
v 7093.22 5560.7 4202.8
vn -0.485795 -0.0603012 0.87199
v 7157.81 5645.86 4236.54
vn -0.622283 0.357657 0.696308
v 7205.04 5684.47 4250.94
vn -0.582516 0.591572 0.557421
v 7293.58 5737.24 4273.35
vn -0.397661 0.915718 0.0576761
v 7478.02 5760.22 4276.7
vn 0.177064 0.812327 -0.555673
v 7527.66 5755.42 4303.92
vn 0.495382 0.76121 -0.418516
v 7344.2 5740.57 4261.45
vn -0.138086 0.887564 -0.439502
v 7356.27 5554.22 4273.97
vn -0.162139 -0.471968 0.866578
v 7185.72 5599.51 4246.36
vn -0.348974 -0.153023 0.924555
v 7249.43 5710.16 4267.96
vn -0.54465 0.615247 0.569937
v 7426.96 5768.13 4292.58
vn -0.0682245 0.928734 -0.364416
v 7546.41 5575.76 4298.56
vn 0.302231 -0.520809 0.798383
v 7279.84 5578.63 4268.27
vn -0.239563 -0.359752 0.901769
v 7583.63 5612.99 4298.52
vn 0.693461 -0.371698 0.617213
v 7255.48 5681.64 4278.03
vn -0.432573 0.111957 0.894621
v 7314.4 5731.46 4298.22
vn -0.48568 0.471761 0.735905
v 7365.52 5760.4 4310.14
vn -0.340089 0.917295 0.207148
v 7394.3 5768.01 4306.21
vn -0.187623 0.973701 -0.129246
v 7490.8 5780.16 4328.48
vn 0.0950671 0.995084 -0.0277347
v 7343.17 5639.77 4306.25
vn -0.261091 -0.256381 0.930645
v 7584.16 5669.57 4319.16
vn 0.908472 0.046579 0.415341
v 7559.5 5733.22 4328.36
vn 0.811473 0.584373 0.00448823
v 7566.39 5644.11 4334.15
vn 0.553451 -0.324805 0.766938
v 7387.93 5720.5 4336.21
vn -0.333873 0.0092744 0.942572
v 7421.71 5765.92 4343.69
vn -0.292653 0.554963 0.778698
v 7435.82 5772.27 4327.16
vn -0.132384 0.96756 0.21518
v 7526.04 5771.7 4343.32
vn 0.53593 0.791927 0.292626
v 7463.76 5611.63 4320.48
vn -0.10188 -0.425425 0.899241
v 7537.28 5663.86 4352.93
vn 0.092097 -0.278647 0.955968
v 7464.12 5692.19 4350.96
vn -0.142462 -0.18094 0.973121
v 7554.65 5737.44 4362.96
vn 0.568931 0.374362 0.732237
v 7505.28 5765.02 4355.67
vn 0.0825781 0.606107 0.791085
v 7558.61 5692.68 4350.87
vn 0.412326 -0.122944 0.902703
v 7465.08 5739.89 4355.02
vn -0.109276 0.0408992 0.99317
v 7534.47 5750.34 4347.39
vn 0.590035 0.66082 0.46387
v 7517.29 5717.42 4352.47
vn 0.00201088 -0.033586 0.999434
f 1//1 2//2 3//3
f 2//2 1//1 4//4
f 5//5 2//2 4//4
f 6//6 2//2 5//5
f 5//5 7//7 8//8
f 6//6 5//5 8//8
f 4//4 1//1 9//9
f 4//4 9//9 10//10
f 5//5 4//4 10//10
f 11//11 7//7 5//5
f 10//10 9//9 12//12
f 5//5 10//10 13//13
f 11//11 5//5 13//13
f 2//2 14//14 3//3
f 2//2 6//6 14//14
f 9//9 15//15 16//16
f 9//9 1//1 15//15
f 15//15 1//1 3//3
f 17//17 8//8 7//7
f 9//9 16//16 18//18
f 9//9 18//18 12//12
f 17//17 7//7 11//11
f 12//12 18//18 19//19
f 17//17 11//11 20//20
f 20//20 11//11 13//13
f 19//19 21//21 12//12
f 10//10 12//12 21//21
f 22//22 10//10 21//21
f 13//13 10//10 22//22
f 3//3 14//14 23//23
f 6//6 24//24 14//14
f 8//8 24//24 6//6
f 15//15 25//25 16//16
f 8//8 17//17 26//26
f 18//18 16//16 25//25
f 19//19 18//18 27//27
f 28//28 19//19 27//27
f 13//13 29//29 20//20
f 19//19 28//28 30//30
f 30//30 31//31 19//19
f 19//19 31//31 21//21
f 29//29 13//13 22//22
f 22//22 21//21 32//32
f 14//14 33//33 23//23
f 24//24 33//33 14//14
f 15//15 23//23 34//34
f 23//23 15//15 3//3
f 8//8 26//26 35//35
f 8//8 35//35 24//24
f 18//18 25//25 27//27
f 26//26 17//17 36//36
f 36//36 17//17 37//37
f 37//37 17//17 20//20
f 29//29 38//38 20//20
f 31//31 39//39 21//21
f 33//33 40//40 23//23
f 24//24 35//35 33//33
f 34//34 25//25 15//15
f 34//34 41//41 25//25
f 26//26 42//42 35//35
f 36//36 42//42 26//26
f 25//25 41//41 43//43
f 25//25 43//43 27//27
f 27//27 44//44 28//28
f 20//20 45//45 37//37
f 20//20 38//38 45//45
f 30//30 46//46 31//31
f 31//31 46//46 39//39
f 47//47 48//48 22//22
f 22//22 48//48 29//29
f 39//39 32//32 21//21
f 32//32 47//47 22//22
f 34//34 23//23 40//40
f 35//35 49//49 33//33
f 42//42 49//49 35//35
f 36//36 50//50 42//42
f 36//36 51//51 50//50
f 37//37 51//51 36//36
f 27//27 43//43 44//44
f 51//51 37//37 45//45
f 44//44 30//30 28//28
f 52//52 45//45 38//38
f 46//46 30//30 53//53
f 29//29 48//48 38//38
f 48//48 54//54 38//38
f 46//46 55//55 39//39
f 39//39 56//56 32//32
f 47//47 32//32 56//56
f 33//33 57//57 40//40
f 34//34 58//58 41//41
f 42//42 50//50 49//49
f 51//51 45//45 59//59
f 43//43 60//60 44//44
f 45//45 52//52 59//59
f 53//53 30//30 44//44
f 54//54 52//52 38//38
f 55//55 46//46 53//53
f 56//56 39//39 55//55
f 34//34 40//40 61//61
f 61//61 40//40 57//57
f 34//34 61//61 58//58
f 57//57 62//62 61//61
f 63//63 57//57 33//33
f 49//49 63//63 33//33
f 49//49 50//50 64//64
f 51//51 59//59 65//65
f 66//66 44//44 60//60
f 44//44 66//66 53//53
f 66//66 67//67 53//53
f 55//55 53//53 68//68
f 47//47 69//69 48//48
f 54//54 48//48 69//69
f 47//47 56//56 70//70
f 69//69 47//47 70//70
f 71//71 62//62 57//57
f 41//41 72//72 43//43
f 72//72 41//41 58//58
f 73//73 64//64 50//50
f 50//50 51//51 73//73
f 43//43 74//74 60//60
f 59//59 52//52 75//75
f 76//76 54//54 69//69
f 63//63 77//77 57//57
f 64//64 63//63 49//49
f 51//51 78//78 73//73
f 51//51 65//65 78//78
f 43//43 72//72 74//74
f 67//67 66//66 79//79
f 52//52 54//54 80//80
f 52//52 80//80 75//75
f 53//53 67//67 68//68
f 73//73 81//81 64//64
f 82//82 78//78 65//65
f 59//59 82//82 65//65
f 60//60 79//79 66//66
f 55//55 68//68 83//83
f 84//84 55//55 83//83
f 55//55 84//84 56//56
f 85//85 69//69 70//70
f 86//86 56//56 84//84
f 70//70 56//56 86//86
f 77//77 71//71 57//57
f 58//58 61//61 87//87
f 61//61 62//62 88//88
f 87//87 61//61 88//88
f 87//87 72//72 58//58
f 60//60 89//89 79//79
f 74//74 89//89 60//60
f 59//59 75//75 82//82
f 82//82 75//75 90//90
f 79//79 91//91 67//67
f 75//75 80//80 90//90
f 68//68 67//67 83//83
f 76//76 69//69 92//92
f 70//70 93//93 85//85
f 94//94 70//70 86//86
f 93//93 70//70 94//94
f 63//63 64//64 81//81
f 88//88 62//62 71//71
f 77//77 95//95 71//71
f 78//78 96//96 73//73
f 97//97 67//67 91//91
f 83//83 67//67 97//97
f 54//54 76//76 98//98
f 80//80 54//54 98//98
f 73//73 96//96 81//81
f 72//72 99//99 74//74
f 82//82 100//100 78//78
f 79//79 89//89 91//91
f 90//90 80//80 101//101
f 92//92 69//69 85//85
f 86//86 84//84 102//102
f 77//77 63//63 81//81
f 72//72 87//87 99//99
f 74//74 99//99 89//89
f 100//100 82//82 103//103
f 103//103 82//82 90//90
f 89//89 104//104 91//91
f 90//90 101//101 103//103
f 91//91 104//104 97//97
f 98//98 76//76 92//92
f 105//105 95//95 77//77
f 81//81 105//105 77//77
f 88//88 71//71 106//106
f 78//78 100//100 107//107
f 80//80 98//98 101//101
f 83//83 97//97 108//108
f 83//83 109//109 84//84
f 84//84 109//109 110//110
f 84//84 110//110 102//102
f 71//71 95//95 105//105
f 107//107 96//96 78//78
f 71//71 105//105 106//106
f 87//87 88//88 111//111
f 106//106 111//111 88//88
f 89//89 99//99 112//112
f 89//89 112//112 104//104
f 104//104 113//113 97//97
f 101//101 98//98 114//114
f 97//97 113//113 108//108
f 98//98 115//115 114//114
f 108//108 109//109 83//83
f 100//100 116//116 107//107
f 99//99 117//117 112//112
f 87//87 117//117 99//99
f 101//101 114//114 103//103
f 108//108 118//118 109//109
f 110//110 109//109 119//119
f 102//102 110//110 119//119
f 102//102 119//119 120//120
f 81//81 121//121 105//105
f 121//121 81//81 96//96
f 105//105 122//122 106//106
f 107//107 121//121 96//96
f 106//106 122//122 111//111
f 116//116 100//100 123//123
f 123//123 100//100 103//103
f 124//124 123//123 103//103
f 104//104 112//112 113//113
f 124//124 103//103 114//114
f 113//113 118//118 108//108
f 109//109 118//118 119//119
f 86//86 102//102 125//125
f 94//94 86//86 125//125
f 107//107 126//126 121//121
f 107//107 116//116 126//126
f 116//116 127//127 126//126
f 87//87 128//128 117//117
f 113//113 112//112 129//129
f 113//113 129//129 118//118
f 130//130 119//119 118//118
f 115//115 98//98 131//131
f 120//120 119//119 130//130
f 102//102 120//120 132//132
f 93//93 94//94 133//133
f 126//126 134//134 121//121
f 135//135 111//111 122//122
f 117//117 136//136 112//112
f 136//136 129//129 112//112
f 137//137 118//118 129//129
f 114//114 115//115 138//138
f 98//98 92//92 131//131
f 102//102 132//132 139//139
f 92//92 85//85 140//140
f 131//131 92//92 140//140
f 139//139 125//125 102//102
f 85//85 93//93 133//133
f 105//105 121//121 141//141
f 105//105 141//141 122//122
f 87//87 111//111 135//135
f 128//128 87//87 135//135
f 116//116 123//123 127//127
f 117//117 128//128 142//142
f 136//136 117//117 142//142
f 129//129 136//136 137//137
f 138//138 124//124 114//114
f 118//118 137//137 143//143
f 130//130 118//118 143//143
f 120//120 130//130 144//144
f 132//132 120//120 144//144
f 133//133 94//94 125//125
f 141//141 121//121 134//134
f 135//135 122//122 141//141
f 136//136 145//145 137//137
f 145//145 136//136 142//142
f 138//138 115//115 146//146
f 130//130 143//143 147//147
f 144//144 130//130 147//147
f 131//131 148//148 115//115
f 115//115 148//148 146//146
f 144//144 149//149 132//132
f 139//139 132//132 150//150
f 85//85 133//133 140//140
f 151//151 139//139 150//150
f 125//125 139//139 151//151
f 134//134 126//126 127//127
f 135//135 141//141 152//152
f 127//127 123//123 153//153
f 127//127 153//153 134//134
f 128//128 145//145 142//142
f 154//154 145//145 128//128
f 123//123 124//124 155//155
f 155//155 124//124 138//138
f 155//155 138//138 156//156
f 137//137 145//145 143//143
f 138//138 146//146 156//156
f 150//150 132//132 149//149
f 131//131 140//140 157//157
f 158//158 141//141 134//134
f 153//153 159//159 134//134
f 135//135 152//152 128//128
f 152//152 154//154 128//128
f 123//123 155//155 153//153
f 154//154 160//160 145//145
f 160//160 143//143 145//145
f 143//143 160//160 147//147
f 161//161 144//144 147//147
f 149//149 144//144 161//161
f 162//162 149//149 161//161
f 162//162 150//150 149//149
f 163//163 151//151 150//150
f 140//140 164//164 165//165
f 157//157 140//140 165//165
f 125//125 151//151 166//166
f 133//133 125//125 166//166
f 140//140 133//133 164//164
f 158//158 134//134 159//159
f 141//141 167//167 152//152
f 158//158 167//167 141//141
f 152//152 168//168 154//154
f 168//168 160//160 154//154
f 168//168 147//147 160//160
f 161//161 147//147 168//168
f 131//131 157//157 148//148
f 163//163 150//150 169//169
f 150//150 162//162 169//169
f 166//166 151//151 163//163
f 133//133 166//166 170//170
f 164//164 133//133 170//170
f 153//153 155//155 171//171
f 167//167 172//172 152//152
f 153//153 171//171 159//159
f 172//172 168//168 152//152
f 173//173 155//155 156//156
f 162//162 161//161 174//174
f 174//174 161//161 168//168
f 162//162 174//174 169//169
f 175//175 163//163 169//169
f 166//166 163//163 176//176
f 166//166 176//176 177//177
f 170//170 166//166 177//177
f 164//164 170//170 178//178
f 173//173 171//171 155//155
f 179//179 168//168 172//172
f 156//156 146//146 180//180
f 174//174 168//168 179//179
f 146//146 148//148 180//180
f 148//148 181//181 180//180
f 169//169 174//174 175//175
f 148//148 157//157 181//181
f 175//175 176//176 163//163
f 165//165 164//164 178//178
f 158//158 159//159 171//171
f 172//172 167//167 179//179
f 173//173 182//182 171//171
f 156//156 180//180 173//173
f 183//183 174//174 179//179
f 183//183 175//175 174//174
f 184//184 175//175 183//183
f 184//184 176//176 175//175
f 177//177 176//176 185//185
f 181//181 157//157 165//165
f 186//186 181//181 165//165
f 177//177 185//185 170//170
f 170//170 185//185 178//178
f 186//186 165//165 178//178
f 179//179 167//167 187//187
f 158//158 187//187 167//167
f 171//171 187//187 158//158
f 171//171 188//188 187//187
f 188//188 171//171 182//182
f 173//173 180//180 182//182
f 189//189 183//183 179//179
f 180//180 181//181 190//190
f 176//176 184//184 185//185
f 178//178 185//185 191//191
f 191//191 186//186 178//178
f 179//179 187//187 189//189
f 188//188 189//189 187//187
f 192//192 188//188 182//182
f 182//182 180//180 192//192
f 189//189 193//193 183//183
f 193//193 184//184 183//183
f 190//190 192//192 180//180
f 181//181 194//194 190//190
f 185//185 184//184 191//191
f 191//191 184//184 193//193
f 181//181 186//186 194//194
f 186//186 191//191 194//194
f 195//195 189//189 188//188
f 192//192 195//195 188//188
f 195//195 193//193 189//189
f 192//192 190//190 195//195
f 195//195 191//191 193//193
f 194//194 191//191 190//190
f 190//190 191//191 195//195
