# Generated by create_cube_mesh.py
# Striatum cube mesh, centre: [0.00475 0.004   0.00775], side: 0.0010615573678040226

g cube

v 4219.221316 3469.221316 7219.221316
v 4219.221316 3469.221316 8280.778684
v 4219.221316 4530.778684 7219.221316
v 4219.221316 4530.778684 8280.778684
v 5280.778684 3469.221316 7219.221316
v 5280.778684 3469.221316 8280.778684
v 5280.778684 4530.778684 7219.221316
v 5280.778684 4530.778684 8280.778684

vn  0.0  0.0  1.0
vn  0.0  0.0 -1.0
vn  0.0  1.0  0.0
vn  0.0 -1.0  0.0
vn  1.0  0.0  0.0
vn -1.0  0.0  0.0

f  1//2  7//2  5//2
f  1//2  3//2  7//2
f  1//6  4//6  3//6
f  1//6  2//6  4//6
f  3//3  8//3  7//3
f  3//3  4//3  8//3
f  5//5  7//5  8//5
f  5//5  8//5  6//5
f  1//4  5//4  6//4
f  1//4  6//4  2//4
f  2//1  6//1  8//1
f  2//1  8//1  4//1
